<svg xmlns="http://www.w3.org/2000/svg" xmlns:xlink="http://www.w3.org/1999/xlink" width="96.483" height="94.699" viewBox="0 0 96.483 94.699"><defs><linearGradient id="a" x1="0.5" x2="0.5" y2="1" gradientUnits="objectBoundingBox"><stop offset="0" stop-color="#00ffc6"/><stop offset="1" stop-color="#04b28b"/></linearGradient><filter id="b" x="11.746" y="5.764" width="44.553" height="44.552" filterUnits="userSpaceOnUse"><feOffset dy="3" input="SourceAlpha"/><feGaussianBlur stdDeviation="3" result="c"/><feFlood flood-opacity="0.161"/><feComposite operator="in" in2="c"/><feComposite in="SourceGraphic"/></filter><filter id="d" x="40.966" y="5.764" width="44.552" height="44.552" filterUnits="userSpaceOnUse"><feOffset dy="3" input="SourceAlpha"/><feGaussianBlur stdDeviation="3" result="e"/><feFlood flood-opacity="0.161"/><feComposite operator="in" in2="e"/><feComposite in="SourceGraphic"/></filter><filter id="f" x="27.757" y="44.721" width="41.886" height="26.32" filterUnits="userSpaceOnUse"><feOffset dy="3" input="SourceAlpha"/><feGaussianBlur stdDeviation="3" result="g"/><feFlood flood-opacity="0.161"/><feComposite operator="in" in2="g"/><feComposite in="SourceGraphic"/></filter></defs><g transform="translate(9.662)"><rect width="66.483" height="15.667" rx="7.834" transform="translate(5.338 64.032)" opacity="0.25"/><path d="M24.367,0C36.55,0,48.734,10.909,48.734,24.367S36.55,48.734,24.367,48.734,0,37.824,0,24.367,12.183,0,24.367,0Z" transform="translate(48.734) rotate(90)" fill="#fff" opacity="0.05"/><path d="M24.367,0C36.55,0,48.734,10.909,48.734,24.367S36.55,48.734,24.367,48.734,0,37.824,0,24.367,12.183,0,24.367,0Z" transform="translate(77.821) rotate(90)" fill="#fff" opacity="0.05"/><g transform="translate(-69.916 -48.236)"><rect width="55.483" height="37.667" rx="8" transform="translate(81.254 82.268)" fill="url(#a)"/><path d="M269.144,165.521a2.563,2.563,0,0,0-3.547-.906l-8.6,4.981L254.8,170.88V182.8l2.038,1.208c.076,0,.076.075.151.075l8.453,4.906a2.322,2.322,0,0,0,1.434.453,2.545,2.545,0,0,0,2.566-2.566V176.767l.075-9.963A1.976,1.976,0,0,0,269.144,165.521Z" transform="translate(-116.317 -75.757)" fill="#00ffc6"/><g transform="matrix(1, 0, 0, 1, 60.25, 48.24)" filter="url(#b)"><path d="M13.277,48.354A13.276,13.276,0,1,0,0,35.078,13.267,13.267,0,0,0,13.277,48.354Zm0-18.718a5.442,5.442,0,1,1-5.442,5.442A5.335,5.335,0,0,1,13.277,29.636Z" transform="translate(20.75 -10.04)" fill="#00ff6e"/></g><g transform="matrix(1, 0, 0, 1, 60.25, 48.24)" filter="url(#d)"><path d="M142.08,48.354A13.276,13.276,0,1,0,128.8,35.078,13.267,13.267,0,0,0,142.08,48.354Zm0-18.718a5.442,5.442,0,1,1-5.442,5.442A5.437,5.437,0,0,1,142.08,29.636Z" transform="translate(-78.84 -10.04)" fill="#00ff6e"/></g><g transform="matrix(1, 0, 0, 1, 60.25, 48.24)" filter="url(#f)"><path d="M2526.168,3267.828a13.031,13.031,0,0,0,9.7,4.718,14.014,14.014,0,0,0,9.973-4.65" transform="translate(-2487.31 -3215.01)" fill="none" stroke="#fff" stroke-linecap="round" stroke-width="3"/></g></g></g></svg>